<?xml version="1.0" standalone="no"?>
<!DOCTYPE svg PUBLIC "-//W3C//DTD SVG 20010904//EN"
 "http://www.w3.org/TR/2001/REC-SVG-20010904/DTD/svg10.dtd">
<svg version="1.0" xmlns="http://www.w3.org/2000/svg"
 width="500.000000pt" height="500.000000pt" viewBox="0 0 500.000000 500.000000"
 preserveAspectRatio="xMidYMid meet">
<metadata>
Created by potrace 1.14, written by Peter Selinger 2001-2017
</metadata>
<g transform="translate(0.000000,500.000000) scale(0.100000,-0.100000)"
fill="#000000" stroke="none">
<path d="M2447 4414 c-1 -1 -36 -4 -77 -7 -223 -17 -485 -90 -695 -192 -91
-45 -286 -169 -341 -218 -16 -14 -40 -35 -54 -47 -304 -259 -544 -677 -614
-1070 -9 -47 -18 -98 -22 -115 -3 -16 -8 -113 -10 -215 -4 -205 13 -343 61
-520 14 -52 30 -112 36 -134 17 -68 155 -356 170 -356 5 0 9 -4 9 -10 0 -5 19
-38 42 -72 259 -384 620 -644 1058 -762 192 -52 298 -64 510 -61 107 1 215 5
240 9 268 40 490 115 705 239 384 220 689 597 834 1035 39 117 56 175 65 222
2 14 9 52 15 85 38 216 28 506 -25 720 -29 116 -86 281 -130 375 -39 82 -176
316 -195 330 -3 3 -28 32 -54 65 -68 85 -178 196 -260 262 -38 31 -72 59 -75
62 -24 28 -241 158 -327 198 -185 85 -452 155 -651 169 -83 6 -212 10 -215 8z
m-169 -461 c26 -36 7 -96 -35 -111 -62 -21 -115 28 -99 93 13 51 100 63 134
18z m-911 -976 c39 -40 8 -117 -48 -117 -62 0 -92 77 -46 120 24 23 70 21 94
-3z m297 -652 c4 -11 -11 -26 -48 -50 -68 -43 -98 -51 -115 -31 -11 13 -11 16
1 16 9 0 26 8 39 19 26 20 100 61 110 61 4 0 9 -7 13 -15z m98 -177 c-4 -70
-17 -86 -66 -83 -17 2 -41 3 -53 4 -18 1 -23 7 -23 29 1 36 17 56 71 87 69 39
75 36 71 -37z m825 -445 c-2 -5 -12 -25 -21 -45 -21 -45 -36 -51 -151 -62 -24
-2 -78 32 -70 44 3 5 1 11 -5 15 -10 6 -15 45 -5 45 2 0 28 -9 56 -20 58 -23
99 -21 157 10 42 22 45 23 39 13z m283 -18 c-7 -8 -20 -15 -29 -15 -11 0 -8 5
9 14 33 19 35 19 20 1z m-1117 -13 c27 -24 22 -69 -11 -86 -25 -13 -30 -12
-51 3 -15 12 -23 28 -23 46 0 47 49 68 85 37z m542 -104 c138 -73 190 -73 341
1 57 28 108 51 114 51 6 0 3 -11 -6 -25 -9 -14 -13 -25 -10 -25 4 0 2 -10 -5
-21 -8 -17 -8 -20 1 -14 8 5 11 3 8 -6 -7 -21 -107 -68 -158 -73 -54 -6 -91
-14 -97 -20 -3 -3 -16 -1 -29 4 -14 6 -26 6 -29 0 -4 -6 -17 -5 -33 4 -15 7
-47 14 -71 15 -31 1 -55 9 -84 31 -23 16 -38 30 -34 30 4 0 -4 17 -18 38 -16
24 -22 45 -18 60 l5 22 32 -20 c17 -12 58 -35 91 -52z m-434 -100 c19 -35 3
-55 -43 -52 -45 2 -53 11 -44 49 10 38 67 40 87 3z"/>
</g>
</svg>
